<svg width="1756" height="727" viewBox="0 0 1756 727" fill="none" xmlns="http://www.w3.org/2000/svg">
<path d="M1639.5 24.5C1639.5 79.1762 1594.06 123.5 1538 123.5C1481.94 123.5 1436.5 79.1762 1436.5 24.5C1436.5 -30.1762 1505.44 24.5 1561.5 24.5C1617.56 24.5 1639.5 -30.1762 1639.5 24.5Z" fill="#16A085"/>
<path d="M1421.29 719.591C1368.89 703.967 1339.4 647.754 1355.42 594.034C1371.44 540.314 1426.9 509.431 1479.3 525.055C1531.69 540.678 1459.6 591.123 1443.58 644.843C1427.56 698.563 1473.69 735.214 1421.29 719.591Z" fill="#FE4F60"/>
<path d="M1401.87 719.825C1349.48 704.201 1319.99 647.988 1336 594.268C1352.02 540.548 1407.48 509.665 1459.88 525.289C1512.27 540.912 1440.18 591.357 1424.16 645.077C1408.14 698.797 1454.27 735.448 1401.87 719.825Z" fill="#16A085"/>
<path d="M1426.81 364.587C1405.8 374.812 1381.8 377.615 1358.91 372.517C1336.02 367.419 1315.64 354.737 1301.26 336.63C1286.88 318.524 1279.38 296.114 1280.04 273.219C1280.7 250.324 1289.48 228.36 1304.88 211.07C1320.28 193.78 1341.35 182.234 1364.5 178.398C1387.65 174.562 1411.45 178.675 1431.84 190.035C1452.23 201.395 1467.95 219.3 1476.33 240.699C1484.7 262.097 1485.21 285.666 1477.76 307.388L1415.64 287.131C1418.28 279.428 1418.1 271.07 1415.13 263.481C1412.16 255.893 1406.58 249.543 1399.35 245.515C1392.12 241.486 1383.68 240.028 1375.47 241.388C1367.26 242.748 1359.79 246.843 1354.33 252.974C1348.87 259.106 1345.75 266.895 1345.52 275.014C1345.29 283.133 1347.95 291.08 1353.05 297.501C1358.15 303.922 1365.37 308.42 1373.49 310.227C1381.61 312.035 1390.12 311.041 1397.57 307.415L1426.81 364.587Z" fill="#16A085"/>
<path d="M1756 364.5C1756 412.549 1725.81 500.5 1675 500.5C1624.19 500.5 1557 447.049 1557 399C1557 350.951 1587.19 286.5 1638 286.5C1688.81 286.5 1756 316.451 1756 364.5Z" fill="#16A085"/>
<path d="M144 157.393C144 189.051 122.154 247 85.3869 247C48.6198 247 0 211.782 0 180.124C0 148.466 21.8459 106 58.6131 106C95.3802 106 144 125.734 144 157.393Z" fill="#16A085"/>
<path d="M213 261C213 285.024 196.767 329 169.447 329C142.127 329 106 302.274 106 278.25C106 254.226 122.233 222 149.553 222C176.873 222 213 236.976 213 261Z" fill="#16A085"/>
<path d="M72 300.514C72 316.231 61.0771 345 42.6935 345C24.3099 345 0 327.516 0 311.799C0 296.082 10.9229 275 29.3065 275C47.6901 275 72 284.797 72 300.514Z" fill="#16A085"/>
</svg>
