<svg width="978" height="662" viewBox="0 0 978 662" fill="none" xmlns="http://www.w3.org/2000/svg">
<path d="M671.29 654.391C618.893 638.768 589.402 582.554 605.42 528.835C621.438 475.115 676.899 444.232 729.295 459.855C781.692 475.478 709.595 525.924 693.578 579.643C677.56 633.363 723.686 670.015 671.29 654.391Z" fill="#16A085"/>
<path d="M651.872 654.625C599.476 639.002 569.985 582.788 586.003 529.069C602.021 475.349 657.482 444.466 709.878 460.089C762.275 475.712 690.178 526.158 674.16 579.877C658.142 633.597 704.269 670.249 651.872 654.625Z" fill="#FE4F60"/>
<path d="M657.813 332.387C636.801 342.613 612.803 345.415 589.91 340.317C567.016 335.22 546.643 322.537 532.262 304.431C517.88 286.325 510.38 263.915 511.04 241.019C511.7 218.124 520.478 196.161 535.879 178.871C551.28 161.581 572.352 150.034 595.503 146.199C618.654 142.363 642.452 146.476 662.842 157.836C683.233 169.196 698.954 187.101 707.328 208.499C715.701 229.898 716.209 253.466 708.763 275.189L646.637 254.932C649.278 247.228 649.098 238.87 646.128 231.282C643.159 223.693 637.584 217.344 630.353 213.315C623.122 209.287 614.682 207.828 606.472 209.188C598.262 210.549 590.79 214.643 585.328 220.775C579.867 226.906 576.754 234.695 576.52 242.814C576.286 250.933 578.945 258.881 584.045 265.302C589.145 271.723 596.37 276.22 604.489 278.028C612.608 279.836 621.118 278.842 628.569 275.216L657.813 332.387Z" fill="#FE4F60"/>
<path d="M978 311C978 359.049 947.81 447 897 447C846.19 447 779 393.549 779 345.5C779 297.451 809.19 233 860 233C910.81 233 978 262.951 978 311Z" fill="#FE4F60"/>
<path d="M65 19.6822C65 31.8067 55.139 54 38.5427 54C21.9464 54 0 40.5123 0 28.3879C0 16.2634 9.86099 0 26.4573 0C43.0536 0 65 7.55779 65 19.6822Z" fill="#FE4F60"/>
<path d="M65 19.6822C65 31.8067 55.139 54 38.5427 54C21.9464 54 0 40.5123 0 28.3879C0 16.2634 9.86099 0 26.4573 0C43.0536 0 65 7.55779 65 19.6822Z" fill="#FE4F60"/>
<path d="M65 19.6822C65 31.8067 55.139 54 38.5427 54C21.9464 54 0 40.5123 0 28.3879C0 16.2634 9.86099 0 26.4573 0C43.0536 0 65 7.55779 65 19.6822Z" fill="#FE4F60"/>
<path d="M65 19.6822C65 31.8067 55.139 54 38.5427 54C21.9464 54 0 40.5123 0 28.3879C0 16.2634 9.86099 0 26.4573 0C43.0536 0 65 7.55779 65 19.6822Z" fill="#FE4F60"/>
</svg>
