<svg xmlns="http://www.w3.org/2000/svg" xmlns:xlink="http://www.w3.org/1999/xlink" viewBox="0 0 128 128"><defs><style>.cls-1{fill:url(#linear-gradient);}.cls-2{fill:#f6b756;}.cls-3{fill:url(#linear-gradient-2);}.cls-4{fill:url(#linear-gradient-3);}.cls-5{fill:url(#linear-gradient-4);}.cls-6{fill:url(#linear-gradient-5);}.cls-7{fill:url(#linear-gradient-6);}.cls-8{fill:url(#linear-gradient-7);}.cls-9{fill:url(#linear-gradient-8);}.cls-10{fill:url(#linear-gradient-9);}.cls-11{fill:url(#linear-gradient-26);}.cls-12{fill:url(#linear-gradient-27);}.cls-13{fill:url(#linear-gradient-28);}.cls-14{fill:url(#linear-gradient-29);}.cls-15{fill:url(#linear-gradient-30);}.cls-16{fill:url(#linear-gradient-31);}.cls-17{fill:url(#linear-gradient-32);}.cls-18{fill:url(#linear-gradient-33);}.cls-19{fill:url(#linear-gradient-34);}.cls-20{fill:url(#linear-gradient-35);}.cls-21{fill:url(#linear-gradient-36);}.cls-22{fill:url(#linear-gradient-37);}.cls-23{fill:url(#linear-gradient-38);}.cls-24{fill:url(#linear-gradient-39);}.cls-25{fill:#47566a;}</style><linearGradient id="linear-gradient" x1="64.14" y1="37.3" x2="64.14" y2="9.3" gradientUnits="userSpaceOnUse"><stop offset="0" stop-color="#fbcc88"/><stop offset="1" stop-color="#ffe5c3"/></linearGradient><linearGradient id="linear-gradient-2" x1="52.97" y1="46.02" x2="52.97" y2="24.59" xlink:href="#linear-gradient"/><linearGradient id="linear-gradient-3" x1="75.33" y1="46.02" x2="75.33" y2="24.57" xlink:href="#linear-gradient"/><linearGradient id="linear-gradient-4" x1="52.98" y1="64.02" x2="52.98" y2="42.59" xlink:href="#linear-gradient"/><linearGradient id="linear-gradient-5" x1="75.34" y1="64.02" x2="75.34" y2="42.57" xlink:href="#linear-gradient"/><linearGradient id="linear-gradient-6" x1="52.99" y1="82.02" x2="52.99" y2="60.59" xlink:href="#linear-gradient"/><linearGradient id="linear-gradient-7" x1="75.36" y1="82.02" x2="75.36" y2="60.57" xlink:href="#linear-gradient"/><linearGradient id="linear-gradient-8" x1="53.01" y1="100.02" x2="53.01" y2="78.59" xlink:href="#linear-gradient"/><linearGradient id="linear-gradient-9" x1="75.37" y1="100.02" x2="75.37" y2="78.57" xlink:href="#linear-gradient"/><linearGradient id="linear-gradient-26" x1="20.52" y1="63.33" x2="20.52" y2="35.33" xlink:href="#linear-gradient"/><linearGradient id="linear-gradient-27" x1="10.1" y1="72.04" x2="10.1" y2="50.62" xlink:href="#linear-gradient"/><linearGradient id="linear-gradient-28" x1="30.96" y1="72.04" x2="30.96" y2="50.6" xlink:href="#linear-gradient"/><linearGradient id="linear-gradient-29" x1="10.04" y1="90.04" x2="10.04" y2="68.62" xlink:href="#linear-gradient"/><linearGradient id="linear-gradient-30" x1="31.04" y1="90.04" x2="31.04" y2="68.6" xlink:href="#linear-gradient"/><linearGradient id="linear-gradient-31" x1="10.05" y1="108.04" x2="10.05" y2="86.62" xlink:href="#linear-gradient"/><linearGradient id="linear-gradient-32" x1="31.05" y1="108.04" x2="31.05" y2="86.6" xlink:href="#linear-gradient"/><linearGradient id="linear-gradient-33" x1="107.52" y1="63.27" x2="107.52" y2="35.27" xlink:href="#linear-gradient"/><linearGradient id="linear-gradient-34" x1="97.1" y1="71.98" x2="97.1" y2="50.56" xlink:href="#linear-gradient"/><linearGradient id="linear-gradient-35" x1="117.96" y1="71.98" x2="117.96" y2="50.54" xlink:href="#linear-gradient"/><linearGradient id="linear-gradient-36" x1="97.04" y1="89.98" x2="97.04" y2="68.56" xlink:href="#linear-gradient"/><linearGradient id="linear-gradient-37" x1="118.04" y1="89.98" x2="118.04" y2="68.54" xlink:href="#linear-gradient"/><linearGradient id="linear-gradient-38" x1="97.05" y1="107.98" x2="97.05" y2="86.56" xlink:href="#linear-gradient"/><linearGradient id="linear-gradient-39" x1="118.05" y1="107.98" x2="118.05" y2="86.54" xlink:href="#linear-gradient"/></defs><title>Fibers</title><g id="Fibers"><path class="cls-1" d="M66.6,34.85,64.15,37.3,61.7,34.85a16.33,16.33,0,0,1,0-23.1L64.13,9.3l2.45,2.45A16.33,16.33,0,0,1,66.6,34.85Z"/><path class="cls-2" d="M66.6,34.85,64.15,37.3,61.7,34.85A16.28,16.28,0,0,1,57,21.3a16.19,16.19,0,0,0,4.67,9.55l2.45,2.45c3.06-3.06,6.36-5.85,7.1-12A16.32,16.32,0,0,1,66.6,34.85Z"/><path class="cls-3" d="M62.15,37.72a16.43,16.43,0,0,0-3.53-7.16c-4.66-5.44-9.93-5.57-14.48-6L43.85,28A16.31,16.31,0,0,0,58.71,45.72l3.45.3"/><path class="cls-4" d="M66.15,37.72a16.37,16.37,0,0,1,3.53-7.16c4.65-5.45,9.91-5.59,14.46-6L84.45,28a16.33,16.33,0,0,1-14.84,17.7l-3.45.3"/><path class="cls-5" d="M62.16,55.72A16.32,16.32,0,0,0,47.61,42.89l-3.46-.3L43.86,46A16.31,16.31,0,0,0,58.72,63.72l3.45.3"/><path class="cls-6" d="M66.16,55.72A16.34,16.34,0,0,1,80.71,42.87l3.44-.3L84.46,46a16.33,16.33,0,0,1-14.84,17.7l-3.45.3"/><path class="cls-7" d="M62.18,73.72A16.34,16.34,0,0,0,47.62,60.89l-3.45-.3L43.87,64A16.31,16.31,0,0,0,58.73,81.72l3.45.3"/><path class="cls-8" d="M66.18,73.72A16.32,16.32,0,0,1,80.72,60.87l3.45-.3.3,3.45a16.32,16.32,0,0,1-14.84,17.7l-3.45.3"/><path class="cls-9" d="M62.19,91.72A16.34,16.34,0,0,0,47.63,78.89l-3.45-.3L43.88,82A16.31,16.31,0,0,0,58.74,99.72l3.45.3Z"/><path class="cls-10" d="M69.64,99.72l-3.45.3v-8.3A16.32,16.32,0,0,1,80.73,78.87l3.45-.3.3,3.45A16.32,16.32,0,0,1,69.64,99.72Z"/><path class="cls-3" d="M62.15,37.72a16.43,16.43,0,0,0-3.53-7.16c-4.66-5.44-9.93-5.57-14.48-6L43.85,28A16.31,16.31,0,0,0,58.71,45.72l3.45.3"/><path class="cls-4" d="M66.15,37.72a16.37,16.37,0,0,1,3.53-7.16c4.65-5.45,9.91-5.59,14.46-6L84.45,28a16.33,16.33,0,0,1-14.84,17.7l-3.45.3"/><path class="cls-5" d="M62.16,55.72A16.32,16.32,0,0,0,47.61,42.89l-3.46-.3L43.86,46A16.31,16.31,0,0,0,58.72,63.72l3.45.3"/><path class="cls-6" d="M66.16,55.72A16.34,16.34,0,0,1,80.71,42.87l3.44-.3L84.46,46a16.33,16.33,0,0,1-14.84,17.7l-3.45.3"/><path class="cls-7" d="M62.18,73.72A16.34,16.34,0,0,0,47.62,60.89l-3.45-.3L43.87,64A16.31,16.31,0,0,0,58.73,81.72l3.45.3"/><path class="cls-8" d="M66.18,73.72A16.32,16.32,0,0,1,80.72,60.87l3.45-.3.3,3.45a16.32,16.32,0,0,1-14.84,17.7l-3.45.3"/><path class="cls-9" d="M62.19,91.72A16.34,16.34,0,0,0,47.63,78.89l-3.45-.3L43.88,82A16.31,16.31,0,0,0,58.74,99.72l3.45.3Z"/><path class="cls-10" d="M69.64,99.72l-3.45.3v-8.3A16.32,16.32,0,0,1,80.73,78.87l3.45-.3.3,3.45A16.32,16.32,0,0,1,69.64,99.72Z"/><path class="cls-3" d="M62.15,37.72a16.43,16.43,0,0,0-3.53-7.16c-4.66-5.44-9.93-5.57-14.48-6L43.85,28A16.31,16.31,0,0,0,58.71,45.72l3.45.3"/><path class="cls-4" d="M66.15,37.72a16.37,16.37,0,0,1,3.53-7.16c4.65-5.45,9.91-5.59,14.46-6L84.45,28a16.33,16.33,0,0,1-14.84,17.7l-3.45.3"/><path class="cls-2" d="M62.15,42v4l-3.45-.3c-8.48-.72-15.77-8-14.81-18.32A16.3,16.3,0,0,0,58.7,41.72Z"/><path class="cls-2" d="M69.61,45.72l-3.45.3V42l3.45-.3A16.3,16.3,0,0,0,84.38,27.38C85.36,37.66,78.11,45,69.61,45.72Z"/><path class="cls-5" d="M62.16,55.72A16.32,16.32,0,0,0,47.61,42.89l-3.46-.3L43.86,46A16.31,16.31,0,0,0,58.72,63.72l3.45.3"/><path class="cls-6" d="M66.16,55.72A16.34,16.34,0,0,1,80.71,42.87l3.44-.3L84.46,46a16.33,16.33,0,0,1-14.84,17.7l-3.45.3"/><path class="cls-2" d="M62.17,60v4l-3.45-.3C50.25,63,43,55.72,43.92,45.4a16.29,16.29,0,0,0,14.8,14.32Z"/><path class="cls-2" d="M69.62,63.72l-3.45.3V60l3.45-.3A16.31,16.31,0,0,0,84.4,45.38C85.37,55.66,78.12,63,69.62,63.72Z"/><path class="cls-7" d="M62.18,73.72A16.34,16.34,0,0,0,47.62,60.89l-3.45-.3L43.87,64A16.31,16.31,0,0,0,58.73,81.72l3.45.3"/><path class="cls-8" d="M66.18,73.72A16.32,16.32,0,0,1,80.72,60.87l3.45-.3.3,3.45a16.32,16.32,0,0,1-14.84,17.7l-3.45.3"/><path class="cls-2" d="M62.18,78v4l-3.45-.3C50.26,81,43,73.72,43.93,63.4a16.29,16.29,0,0,0,14.8,14.32Z"/><path class="cls-2" d="M69.63,81.72l-3.45.3V78l3.45-.3A16.31,16.31,0,0,0,84.41,63.38C85.38,73.66,78.13,81,69.63,81.72Z"/><path class="cls-9" d="M62.19,91.72A16.34,16.34,0,0,0,47.63,78.89l-3.45-.3L43.88,82A16.31,16.31,0,0,0,58.74,99.72l3.45.3Z"/><path class="cls-10" d="M69.64,99.72l-3.45.3v-8.3A16.32,16.32,0,0,1,80.73,78.87l3.45-.3.3,3.45A16.32,16.32,0,0,1,69.64,99.72Z"/><path class="cls-2" d="M62.19,96v4l-3.45-.3C50.27,99,43,91.72,43.94,81.4a16.3,16.3,0,0,0,14.8,14.32Z"/><path class="cls-2" d="M69.64,99.72l-3.45.3V96l3.45-.3A16.3,16.3,0,0,0,84.42,81.38C85.39,91.66,78.14,99,69.64,99.72Z"/><polygon class="cls-2" points="66.15 35.3 66.21 127.3 62.21 127.3 62.15 35.3 64.15 37.3 66.15 35.3"/><path class="cls-11" d="M20.53,63.33c2.75-2.76,2.51-2.51,2.92-2.94,0-.08,3-4.67,3-4.73A16.31,16.31,0,0,0,23,37.78l-2.45-2.45-2.45,2.45a16.32,16.32,0,0,0-3.5,17.88C18.3,61.46,16.91,59.71,20.53,63.33Z"/><path class="cls-2" d="M26.48,55.66c0,.14-3,4.63-3,4.73-.45.48-.08.1-2.92,2.94-3.67-3.66-2.31-2-6-7.67a16.36,16.36,0,0,1-1.26-7,15.88,15.88,0,0,0,.94,3c3.67,5.69,2.34,4.05,6,7.67,3.39-3.39,2.11-1.69,5.95-7.66A16.07,16.07,0,0,0,27.42,46,16.3,16.3,0,0,1,26.48,55.66Z"/><path class="cls-12" d="M18.53,72l-3.08-.29C7.06,71,.86,63.06,1.58,54.07l.28-3.45,3.22.3c7.09.66,12.36,6.39,13.59,12.83Z"/><path class="cls-13" d="M22.53,72l3.09-.29C34,71,40.21,63,39.46,54.05l-.28-3.45L36,50.9c-6.32.6-12,5.36-13.57,12.85Z"/><path class="cls-14" d="M18.54,81.11A15.59,15.59,0,0,0,5.09,68.92l-3.22-.3-.28,3.45C.87,81.06,7.08,89,15.47,89.75l3.08.29Z"/><path class="cls-15" d="M22.54,81.16A15.59,15.59,0,0,1,36,68.9l3.21-.3.28,3.45C40.22,81,34,89,25.64,89.75L22.55,90Z"/><path class="cls-16" d="M18.55,99.11A15.58,15.58,0,0,0,5.11,86.92l-3.23-.3-.27,3.45c-.73,9,5.48,16.91,13.87,17.68l3.08.29Z"/><path class="cls-17" d="M22.55,99.16A15.6,15.6,0,0,1,36,86.9l3.2-.3.29,3.45c.74,9-5.45,16.91-13.84,17.7l-3.09.29Z"/><path class="cls-2" d="M18.56,105v3l-3.08-.29C6.29,106.91.53,97.63,1.62,90c.65,7.72,6.39,14.06,13.86,14.75Z"/><path class="cls-2" d="M25.65,107.75l-3.09.29v-3l3.09-.29c7.46-.71,13.18-7,13.83-14.76v.06C40.23,99,34,107,25.65,107.75Z"/><path class="cls-2" d="M1.61,72C.5,79.8,6.42,88.92,15.47,89.75l3.08.29V87l-3.08-.29C8,86.06,2.26,79.72,1.61,72Z"/><path class="cls-2" d="M39.48,72.05V72C38.82,79.71,33.1,86,25.64,86.75L22.55,87v3l3.09-.29C34,89,40.22,81,39.48,72.05Z"/><path class="cls-2" d="M1.6,54C.49,61.8,6.41,70.92,15.46,71.75l3.08.29V69l-3.08-.29C8,68.06,2.25,61.72,1.6,54Z"/><path class="cls-2" d="M39.47,54.05V54C38.81,61.71,33.09,68,25.63,68.75L22.54,69v3l3.09-.29C34,71,40.21,63,39.47,54.05Z"/><polygon class="cls-2" points="22.53 61.33 22.58 127.33 18.58 127.33 18.53 61.33 20.53 63.33 22.53 61.33"/><path class="cls-18" d="M107.53,63.27c2.75-2.76,2.51-2.51,2.92-2.94,0-.08,3-4.67,3-4.73A16.32,16.32,0,0,0,110,37.72l-2.45-2.45-2.45,2.45a16.33,16.33,0,0,0-3.5,17.89C105.3,61.4,103.91,59.65,107.53,63.27Z"/><path class="cls-2" d="M113.48,55.6c0,.14-3,4.63-3,4.73-.45.48-.08.1-2.92,2.94-3.67-3.66-2.31-2-6-7.66a16.43,16.43,0,0,1-1.26-7,16.2,16.2,0,0,0,.94,3c3.67,5.68,2.34,4,6,7.66,3.39-3.39,2.11-1.69,6-7.66A16.07,16.07,0,0,0,114.42,46,16.3,16.3,0,0,1,113.48,55.6Z"/><path class="cls-19" d="M105.53,72l-3.08-.28C94.06,70.92,87.86,63,88.58,54l.28-3.45,3.22.3c7.09.66,12.36,6.39,13.59,12.83Z"/><path class="cls-20" d="M109.53,72l3.09-.29C121,70.9,127.21,63,126.46,54l-.28-3.45-3.21.3c-6.32.6-12,5.36-13.57,12.85Z"/><path class="cls-21" d="M105.54,81.05A15.59,15.59,0,0,0,92.09,68.86l-3.22-.3L88.59,72c-.72,9,5.49,16.91,13.88,17.69l3.08.28Z"/><path class="cls-22" d="M109.54,81.1A15.6,15.6,0,0,1,123,68.84l3.21-.3.28,3.45c.75,9-5.44,16.91-13.83,17.7l-3.09.29Z"/><path class="cls-23" d="M105.55,99.05A15.58,15.58,0,0,0,92.11,86.86l-3.23-.3L88.61,90c-.73,9,5.48,16.91,13.87,17.69l3.08.28Z"/><path class="cls-24" d="M109.55,99.1A15.61,15.61,0,0,1,123,86.84l3.2-.3.29,3.45c.74,9-5.45,16.91-13.84,17.7l-3.09.29Z"/><path class="cls-2" d="M105.56,105v3l-3.08-.29c-9.19-.84-15-10.12-13.86-17.75.65,7.72,6.39,14.06,13.86,14.75Z"/><path class="cls-2" d="M112.65,107.69l-3.09.29v-3l3.09-.29c7.46-.71,13.18-7,13.83-14.76V90C127.23,99,121,106.9,112.65,107.69Z"/><path class="cls-2" d="M88.61,71.94c-1.11,7.81,4.81,16.92,13.86,17.75l3.08.29V87l-3.08-.29C95,86,89.26,79.66,88.61,71.94Z"/><path class="cls-2" d="M126.48,72v-.06c-.65,7.72-6.37,14-13.83,14.76l-3.09.29v3l3.09-.29C121,88.9,127.22,81,126.48,72Z"/><path class="cls-2" d="M88.6,53.94c-1.11,7.81,4.81,16.92,13.86,17.75l3.08.29V69l-3.08-.29C95,68,89.25,61.66,88.6,53.94Z"/><path class="cls-2" d="M126.47,54v-.06c-.65,7.72-6.37,14.05-13.83,14.76l-3.09.29v3l3.09-.29C121,70.9,127.21,63,126.47,54Z"/><polygon class="cls-2" points="109.53 61.27 109.58 127.27 105.58 127.27 105.53 61.27 107.53 63.27 109.53 61.27"/><path class="cls-25" d="M81.31,40.29a17.19,17.19,0,0,0,4-12.65L85,24.19a.14.14,0,0,1,0-.07S85,24,85,24V16a1,1,0,0,0-2,0v7.36l-2.54.22a17.34,17.34,0,0,0-8.65,3.24,17.33,17.33,0,0,0-4.65-16.08L65,8.59V1a1,1,0,0,0-2,0V8.59l-2.16,2.15a17.33,17.33,0,0,0-4.65,16.08,17.34,17.34,0,0,0-8.65-3.24L45,23.36V16a1,1,0,0,0-2,0v8s0,.08,0,.12a.14.14,0,0,1,0,.07l-.3,3.45a17.19,17.19,0,0,0,4,12.65A18,18,0,0,0,48,41.64l-.41-.06-3.45-.3a1,1,0,0,0-1.09.91l-.3,3.45a17.19,17.19,0,0,0,4,12.65A18,18,0,0,0,48,59.64l-.41-.06-3.45-.3a1,1,0,0,0-1.09.91l-.3,3.45a17.19,17.19,0,0,0,4,12.65A18,18,0,0,0,48,77.64l-.41-.06-3.45-.3a1,1,0,0,0-1.09.91l-.3,3.45a17.34,17.34,0,0,0,15.76,18.78l2.54.22V127a1,1,0,0,0,1,1h4a1,1,0,0,0,1-1V100.64l2.54-.22A17.34,17.34,0,0,0,85.3,81.64L85,78.19a1,1,0,0,0-1.09-.91l-3.45.3-.41.06a18,18,0,0,0,1.26-1.35,17.19,17.19,0,0,0,4-12.65L85,60.19a1,1,0,0,0-1.09-.91l-3.45.3-.41.06a18,18,0,0,0,1.26-1.35,17.19,17.19,0,0,0,4-12.65L85,42.19a1,1,0,0,0-1.09-.91l-3.45.3-.41.06A18,18,0,0,0,81.31,40.29Zm-.67-14.71,2.45-.22.21,2.46a15.3,15.3,0,0,1-13.94,16.6L67,44.63V37.54a15.15,15.15,0,0,1,1.22-3.46,16.34,16.34,0,0,0,2.13-3.24A15.29,15.29,0,0,1,80.64,25.58ZM62.26,12.16,64,10.41l1.74,1.75a15.31,15.31,0,0,1,3,17.55A17.45,17.45,0,0,0,66.53,33c-.25.3-.51.58-.79.86l-.45.45L64,35.59l-1.74-1.75a10.73,10.73,0,0,1-.79-.86,16.83,16.83,0,0,0-2.16-3.27A15.31,15.31,0,0,1,62.26,12.16ZM44.7,27.82l.21-2.46,2.45.22a15.29,15.29,0,0,1,10.29,5.26,16.56,16.56,0,0,0,2.13,3.23A15.54,15.54,0,0,1,61,37.54v7.09l-2.36-.21A15.3,15.3,0,0,1,44.7,27.82Zm13.76,18.6,2.54.22v3.44a17.36,17.36,0,0,0-2.93-3.72Zm-13.76-.6.21-2.46,2.45.22A15.23,15.23,0,0,1,61,55.54v7.09l-2.36-.21A15.3,15.3,0,0,1,44.7,45.82Zm13.76,18.6,2.54.22v3.44a17.36,17.36,0,0,0-2.93-3.72Zm-13.76-.6.21-2.46,2.45.22A15.23,15.23,0,0,1,61,73.54v7.09l-2.36-.21A15.3,15.3,0,0,1,44.7,63.82Zm13.76,18.6,2.54.22v3.44a17.36,17.36,0,0,0-2.93-3.72Zm.18,16A15.3,15.3,0,0,1,44.7,81.82l.21-2.46,2.45.22A15.23,15.23,0,0,1,61,91.54v7.09ZM65,126H63V37.41l.29.3a1,1,0,0,0,1.42,0l.29-.3V126ZM80.64,79.58l2.45-.22.21,2.46a15.3,15.3,0,0,1-13.94,16.6L67,98.63v-7.1A15.24,15.24,0,0,1,80.64,79.58ZM67,86.08V82.64l2.54-.22.39-.06A17.36,17.36,0,0,0,67,86.08Zm13.64-24.5,2.45-.22.21,2.46a15.3,15.3,0,0,1-13.94,16.6L67,80.63V73.54A15.23,15.23,0,0,1,80.64,61.58ZM67,68.08V64.64l2.54-.22.39-.06A17.36,17.36,0,0,0,67,68.08Zm13.64-24.5,2.45-.22.21,2.46a15.3,15.3,0,0,1-13.94,16.6L67,62.63V55.54A15.23,15.23,0,0,1,80.64,43.58ZM67,50.08V46.64l2.54-.22.39-.06A17.36,17.36,0,0,0,67,50.08Z"/><path class="cls-25" d="M127.58,71.65l-.28-3.45a1,1,0,0,0-.36-.69,1,1,0,0,0-.73-.23l-3.22.3-.34,0a18,18,0,0,0,4.93-14l-.28-3.45,0-.08a.53.53,0,0,0,0-.12V42a1,1,0,0,0-2,0v7.37l-2.31.21a15.62,15.62,0,0,0-7.44,2.76,17.26,17.26,0,0,0-4.75-15.6l-2.16-2.16V27a1,1,0,1,0-2,0v7.59l-2.16,2.15a17.26,17.26,0,0,0-4.75,15.6,15.62,15.62,0,0,0-7.45-2.76L90,49.37V42a1,1,0,0,0-2,0v8s0,.09,0,.13a.14.14,0,0,1,0,.07l-.28,3.45a18,18,0,0,0,4.92,14l-.34,0-3.21-.3a1,1,0,0,0-.73.23,1,1,0,0,0-.36.69l-.28,3.45a18,18,0,0,0,4.92,14l-.34,0-3.21-.3a1,1,0,0,0-.73.23,1,1,0,0,0-.36.69l-.28,3.45c-.78,9.52,5.84,17.94,14.76,18.77l2.18.2V127a1,1,0,0,0,1,1h4a1,1,0,0,0,1-1V108.62l2.17-.2c8.92-.83,15.54-9.25,14.77-18.77l-.28-3.45a1,1,0,0,0-.36-.69,1,1,0,0,0-.73-.23l-3.22.3-.34,0A18,18,0,0,0,127.58,71.65Zm-4.41-2.07,2.22-.21.19,2.44c.69,8.43-5.12,15.89-13,16.61l-2,.19V80.93A14.58,14.58,0,0,1,123.17,69.58Zm-12.53,6.07v-3l2.17-.2.34,0A16.57,16.57,0,0,0,110.64,75.65Zm12.53-24.07,2.22-.21.19,2.44c.69,8.43-5.12,15.89-13,16.61l-2,.19V63a13.54,13.54,0,0,1,.85-2.54h0c.05-.13.12-.27.19-.43a14.82,14.82,0,0,1,1.91-3.09c.23-.3.48-.58.74-.86a.27.27,0,0,0,.07-.08A13.83,13.83,0,0,1,123.17,51.58ZM105.9,38.16l1.74-1.75,1.74,1.75a15.27,15.27,0,0,1,3.35,16.66c-.25.27-.49.54-.71.81a16.41,16.41,0,0,0-2.16,3.52l-.17.37-.31.32-.44.44h0l-1.29,1.29-1.74-1.74c-.12-.11-.23-.23-.34-.35s-.1-.24-.15-.34a16.86,16.86,0,0,0-2.15-3.52c-.23-.28-.47-.55-.71-.82A15.26,15.26,0,0,1,105.9,38.16ZM89.7,53.81l.2-2.44,2.2.21A13.85,13.85,0,0,1,101,56q.39.43.75.87A15.43,15.43,0,0,1,103.61,60c.06.12.11.24.16.37s0,0,0,0v0l0,.08a15.36,15.36,0,0,1,.8,2.43v7.64l-2-.19C94.81,69.7,89,62.24,89.7,53.81Zm12.76,18.61,2.18.2v3a17,17,0,0,0-2.51-3.28ZM89.7,71.81l.2-2.44,2.2.21A14.57,14.57,0,0,1,104.64,81v7.66l-2-.19C94.81,87.7,89,80.24,89.7,71.81Zm12.76,18.61,2.18.2v3a17,17,0,0,0-2.51-3.28Zm.18,16C94.81,105.7,89,98.24,89.7,89.81l.2-2.44,2.2.21A14.57,14.57,0,0,1,104.64,99v7.66Zm4,19.58V63.88a1.1,1.1,0,0,0,.11-.35l.18.18a1,1,0,0,0,.71.29h0a1,1,0,0,0,.71-.29l.17-.18a1,1,0,0,0,.12.37V126Zm16.53-38.42,2.22-.21.19,2.44c.69,8.43-5.12,15.89-13,16.61l-2,.19V98.93A14.58,14.58,0,0,1,123.17,87.58Zm-12.53,6.07v-3l2.17-.2.34,0A16.57,16.57,0,0,0,110.64,93.65Z"/><path class="cls-25" d="M40.3,53.65,40,50.2a.14.14,0,0,1,0-.07s0-.08,0-.13V42a1,1,0,0,0-2,0v7.37l-2.3.21a15.62,15.62,0,0,0-7.45,2.76,17.26,17.26,0,0,0-4.75-15.6l-2.16-2.15V27a1,1,0,0,0-2,0v7.58L17.2,36.74a17.26,17.26,0,0,0-4.75,15.6A15.62,15.62,0,0,0,5,49.58L2.7,49.37V42a1,1,0,0,0-2,0v8a.53.53,0,0,0,0,.12l0,.08L.42,53.65a18,18,0,0,0,4.93,14l-.34,0-3.22-.3a1,1,0,0,0-.73.23,1,1,0,0,0-.36.69L.42,71.65a18,18,0,0,0,4.93,14l-.34,0-3.22-.3a1,1,0,0,0-.73.23,1,1,0,0,0-.36.69L.42,89.65c-.77,9.52,5.85,17.94,14.77,18.77l2.17.2V127a1,1,0,0,0,1,1h4a1,1,0,0,0,1-1V108.62l2.18-.2c8.92-.83,15.54-9.25,14.76-18.77L40,86.2a1,1,0,0,0-.36-.69,1,1,0,0,0-.73-.23l-3.21.3-.34,0a18,18,0,0,0,4.92-14L40,68.2a1,1,0,0,0-.36-.69,1,1,0,0,0-.73-.23l-3.21.3-.34,0A18,18,0,0,0,40.3,53.65Zm-4.4-2.07,2.2-.21.2,2.44c.7,8.43-5.11,15.89-12.94,16.61l-2,.19V63a15,15,0,0,1,.8-2.43l0-.08v0s0,0,0,0a4.32,4.32,0,0,1,.18-.41,14.86,14.86,0,0,1,1.9-3.09c.23-.3.48-.58.74-.86a.27.27,0,0,0,.07-.08A13.79,13.79,0,0,1,35.9,51.58ZM18.62,38.16l1.74-1.75,1.74,1.75a15.27,15.27,0,0,1,3.35,16.66c-.25.27-.49.54-.71.82a16.37,16.37,0,0,0-2.13,3.47,3.17,3.17,0,0,0-.17.38c-.11.12-.22.24-.34.35l-1.74,1.74-1.29-1.29h0l-.44-.44-.33-.33c-.05-.12-.09-.24-.15-.36A16.41,16.41,0,0,0,16,55.63c-.23-.28-.47-.55-.71-.82A15.26,15.26,0,0,1,18.62,38.16ZM2.42,53.81l.19-2.44,2.22.21A13.85,13.85,0,0,1,13.67,56q.39.43.75.87A15.09,15.09,0,0,1,16.33,60a3.31,3.31,0,0,1,.18.41h0l0,.06A13.87,13.87,0,0,1,17.36,63v7.65l-2-.19C7.54,69.7,1.73,62.24,2.42,53.81ZM15.19,72.42l2.17.2v3a16.57,16.57,0,0,0-2.51-3.28ZM2.42,71.81l.19-2.44,2.22.21A14.58,14.58,0,0,1,17.36,80.93v7.68l-2-.19C7.54,87.7,1.73,80.24,2.42,71.81ZM15.19,90.42l2.17.2v3a16.57,16.57,0,0,0-2.51-3.28Zm.18,16C7.54,105.7,1.73,98.24,2.42,89.81l.19-2.44,2.22.21A14.58,14.58,0,0,1,17.36,98.93v7.68Zm6,19.58h-2V63.9a1,1,0,0,0,.12-.37l.17.18a1,1,0,0,0,.71.29h0a1,1,0,0,0,.71-.29l.29-.3ZM35.9,87.58l2.2-.21.2,2.44c.7,8.43-5.11,15.89-12.94,16.61l-2,.19V99A14.57,14.57,0,0,1,35.9,87.58ZM23.36,93.65v-3l2.18-.2.33,0A17,17,0,0,0,23.36,93.65ZM35.9,69.58l2.2-.21.2,2.44c.7,8.43-5.11,15.89-12.94,16.61l-2,.19V81A14.57,14.57,0,0,1,35.9,69.58ZM23.36,75.65v-3l2.18-.2.33,0A17,17,0,0,0,23.36,75.65Z"/></g></svg>