<svg width="1624" height="416" viewBox="0 0 1624 416" fill="none" xmlns="http://www.w3.org/2000/svg">
<path d="M0 0H1624V416H0V0Z" fill="#16A085"/>
<path d="M540.835 183.146V169.455H605.344V183.146H581.297V248H564.882V183.146H540.835ZM619.908 248H602.113L629.228 169.455H650.628L677.705 248H659.909L640.235 187.403H639.621L619.908 248ZM618.796 217.126H660.83V230.089H618.796V217.126ZM752.856 169.455V248H738.512L704.341 198.564H703.765V248H687.159V169.455H701.733L735.636 218.852H736.326V169.455H752.856ZM783.183 169.455V248H766.577V169.455H783.183ZM796.846 248V169.455H813.453V204.087H814.488L842.754 169.455H862.659L833.511 204.624L863.004 248H843.137L821.622 215.707L813.453 225.679V248H796.846ZM919.823 169.455H936.429V220.463C936.429 226.19 935.061 231.202 932.326 235.497C929.615 239.793 925.819 243.142 920.935 245.545C916.051 247.923 910.363 249.112 903.868 249.112C897.348 249.112 891.647 247.923 886.763 245.545C881.88 243.142 878.083 239.793 875.373 235.497C872.662 231.202 871.307 226.19 871.307 220.463V169.455H887.914V219.044C887.914 222.036 888.566 224.695 889.87 227.021C891.199 229.348 893.066 231.176 895.469 232.506C897.873 233.835 900.672 234.5 903.868 234.5C907.09 234.5 909.89 233.835 912.267 232.506C914.671 231.176 916.525 229.348 917.828 227.021C919.158 224.695 919.823 222.036 919.823 219.044V169.455ZM950.092 248V169.455H966.699V234.308H1000.37V248H950.092ZM1026.91 248H1009.12L1036.23 169.455H1057.63L1084.71 248H1066.91L1047.24 187.403H1046.62L1026.91 248ZM1025.8 217.126H1067.83V230.089H1025.8V217.126Z" fill="white"/>
</svg>
